<svg width="157" height="44" viewBox="0 0 157 44" fill="none" xmlns="http://www.w3.org/2000/svg">
<g clip-path="url(#clip0_55915_12183)">
<path d="M83.0779 31.6806C78.3923 31.6806 74.6584 28.129 74.1043 22.4687L90.8229 20.1133C90.8229 14.5147 87.3057 10.5068 81.0663 10.5068C75.2727 10.5068 69.6958 15.7109 69.6958 23.11C69.6958 29.5225 74.2127 34.6156 80.9579 34.6156C85.9205 34.6156 89.5461 31.9149 91.2685 28.61L90.2085 27.9564C88.197 30.5584 85.9205 31.6559 83.0779 31.6559V31.6806ZM81.0061 12.1223C84.3546 12.1223 85.7398 14.823 85.7398 17.277C85.7398 18.7815 84.8485 19.2748 82.8972 19.5831L74.032 20.8779C74.032 16.8701 76.706 12.1223 81.0061 12.1223Z" fill="white"/>
<path d="M154.722 32.2231C154.276 32.0504 154.023 31.6681 153.915 31.1009C153.794 30.5459 153.722 29.5224 153.722 28.0549V10.519H153.397L145.953 12.5661V13.565C148.519 14.0706 149.013 15.0202 149.013 16.722V28.0549C149.013 29.5347 148.94 30.5459 148.82 31.1009C148.699 31.6558 148.422 32.0381 147.977 32.2231C147.531 32.4327 146.748 32.5807 145.556 32.6794V34.1345H157.107V32.6794C155.939 32.5807 155.144 32.4204 154.71 32.2231H154.722Z" fill="white"/>
<path d="M115.997 40.9664C115.865 40.4361 115.792 39.4125 115.792 37.9451V10.5684H115.07L111.83 12.3195C110.601 11.3699 108.156 10.519 105.59 10.519C99.0738 10.519 93.0513 15.7231 93.0513 23.9238C93.0513 29.6827 96.9539 34.6278 102.639 34.6278C106.771 34.6278 109.661 31.9271 110.998 29.8184V37.9327C110.998 39.4002 110.914 40.4238 110.794 40.954C110.661 41.509 110.324 41.8912 109.842 42.0762C109.36 42.2735 108.433 42.4338 107.06 42.5325V43.9877H119.514V42.5325C118.25 42.4338 117.382 42.2735 116.913 42.0762C116.431 41.9036 116.118 41.5213 115.985 40.954L115.997 40.9664ZM110.998 28.7332C109.71 30.3856 107.541 31.5325 105.205 31.5325C100.856 31.5325 97.9656 27.685 97.9656 22.2713C97.9656 15.3161 101.808 12.2702 105.434 12.2702C108.674 12.2702 111.01 14.1693 111.01 17.6715V28.7332H110.998Z" fill="white"/>
<path d="M141.087 29.128V10.5563H140.762L133.318 12.5047V13.5036C135.943 14.0585 136.377 15.0081 136.377 16.7099V28.7211C135.173 30.3735 133.041 31.6684 130.68 31.6684C127.5 31.6684 125.862 29.72 125.862 26.8096V10.5439H125.537L118.032 12.4924V13.4913C120.658 14.0462 121.092 14.9957 121.092 16.6975V27.0563C121.092 31.804 123.886 34.6157 128.319 34.6157C132.149 34.6157 134.992 32.063 136.365 29.9173C136.365 31.4217 136.75 33.4195 137.461 34.6157H137.738L144.146 32.8152V31.767C141.581 31.3724 141.087 30.4722 141.087 29.1157V29.128Z" fill="white"/>
<path d="M146.206 0.147949H153.734V7.86768L146.206 0.147949Z" fill="white"/>
<path d="M33.7983 19.3117H52.6609L33.7983 0V19.3117Z" fill="#EEECE4"/>
<path d="M54.6365 21.8027H44.4343V32.2478L54.6365 21.8027Z" fill="#EEECE4"/>
<path d="M0 34.1346H31.3654V2.02246L0 34.1346Z" fill="#EEECE4"/>
<path d="M34.0515 26.2051L42.0133 34.2701V26.2051H34.0515Z" fill="#E0A920"/>
</g>
<defs>
<clipPath id="clip0_55915_12183">
<rect width="157" height="44" fill="white"/>
</clipPath>
</defs>
</svg>
